<svg width="60" height="60" viewBox="0 0 60 60" fill="none" xmlns="http://www.w3.org/2000/svg">
<path d="M2 29.975C2 14.5215 14.5296 2 30 2C45.4704 2 58 14.5215 58 29.975C58 45.4277 45.4717 57.9487 30.0024 57.95C14.5272 57.9164 2 45.3906 2 29.975Z" stroke="white" stroke-width="4"/>
<path d="M43.497 17.7824C40.9445 16.6295 38.2872 15.7911 35.525 15.3369C35.1753 15.9658 34.7907 16.7693 34.511 17.4331C31.5739 16.9789 28.6019 16.9789 25.6648 17.4331C25.3501 16.6994 25.0005 16.0007 24.6159 15.3369C21.8536 15.7911 19.1613 16.6295 16.6438 17.8174C11.6089 25.3286 10.2452 32.6302 10.9096 39.8619C13.8816 42.0629 17.1683 43.7398 20.6998 44.7879C21.504 43.7049 22.2033 42.5869 22.7977 41.3991C21.6438 40.9799 20.5599 40.4558 19.511 39.827C19.7907 39.6174 20.0354 39.4078 20.3152 39.1981C26.504 42.1328 33.7068 42.1328 39.8956 39.1981C40.1753 39.4078 40.4201 39.6174 40.6998 39.827C39.6508 40.4558 38.5319 40.9799 37.3781 41.3991C37.9725 42.5869 38.6718 43.7049 39.476 44.7879C43.0075 43.7049 46.3291 42.0629 49.2662 39.8619C50.0354 31.4773 47.8676 24.2106 43.497 17.7824ZM23.6368 35.3901C21.7138 35.3901 20.1753 33.6433 20.1753 31.5122C20.1753 29.3812 21.7138 27.5994 23.6368 27.5994C25.5949 27.5994 27.1333 29.3462 27.1333 31.5122C27.0984 33.6433 25.5949 35.3901 23.6368 35.3901ZM36.504 35.3901C34.5809 35.3901 33.0424 33.6433 33.0424 31.5122C33.0424 29.3812 34.5809 27.5994 36.504 27.5994C38.462 27.5994 40.0005 29.3462 39.9655 31.5122C39.9305 33.6783 38.427 35.3901 36.504 35.3901Z" fill="white"/>
</svg>
