<svg width="60" height="60" viewBox="0 0 60 60" fill="none" xmlns="http://www.w3.org/2000/svg">
<path d="M29.9999 5.40551C38.0103 5.40551 38.9591 5.436 42.1225 5.58033C45.0474 5.71383 46.6359 6.20255 47.6931 6.61328C49.0933 7.1575 50.0928 7.8077 51.1426 8.85744C52.1923 9.90717 52.8425 10.9067 53.3866 12.3069C53.7974 13.3641 54.2862 14.9526 54.4197 17.8774C54.564 21.0409 54.5945 21.9897 54.5945 30.0001C54.5945 38.0104 54.564 38.9592 54.4197 42.1226C54.2862 45.0475 53.7974 46.636 53.3866 47.6933C52.8425 49.0935 52.1923 50.0929 51.1426 51.1427C50.0928 52.1924 49.0933 52.8426 47.6931 53.3867C46.6359 53.7976 45.0474 54.2863 42.1225 54.4198C38.9596 54.5641 38.0108 54.5946 29.9999 54.5946C21.9891 54.5946 21.0403 54.5641 17.8774 54.4198C14.9525 54.2863 13.364 53.7976 12.3069 53.3867C10.9065 52.8426 9.90705 52.1924 8.85732 51.1427C7.80758 50.0929 7.15738 49.0935 6.61328 47.6933C6.20243 46.636 5.71371 45.0475 5.58021 42.1227C5.43588 38.9592 5.4054 38.0104 5.4054 30.0001C5.4054 21.9897 5.43588 21.0409 5.58021 17.8775C5.71371 14.9526 6.20243 13.3641 6.61328 12.3069C7.15738 10.9067 7.80758 9.90717 8.85732 8.85744C9.90705 7.8077 10.9065 7.1575 12.3069 6.61328C13.364 6.20255 14.9525 5.71383 17.8773 5.58033C21.0408 5.436 21.9896 5.40551 29.9999 5.40551ZM29.9999 0C21.8524 0 20.8309 0.0345347 17.631 0.180533C14.4378 0.326293 12.2571 0.833358 10.3487 1.57502C8.37598 2.34169 6.70295 3.36749 5.03516 5.03528C3.36737 6.70307 2.34157 8.37609 1.5749 10.3489C0.833239 12.2572 0.326174 14.4379 0.180414 17.6312C0.0344156 20.8309 0 21.8525 0 30.0001C0 38.1476 0.0344156 39.1693 0.180414 42.369C0.326174 45.5622 0.833239 47.7429 1.5749 49.6513C2.34157 51.6239 3.36737 53.2971 5.03516 54.9648C6.70295 56.6326 8.37598 57.6584 10.3487 58.4251C12.2571 59.1668 14.4378 59.6738 17.631 59.8196C20.8309 59.9656 21.8524 60 29.9999 60C38.1475 60 39.1691 59.9656 42.3688 59.8196C45.5621 59.6738 47.7428 59.1668 49.6511 58.4251C51.6239 57.6584 53.2969 56.6326 54.9647 54.9648C56.6325 53.2971 57.6583 51.624 58.425 49.6513C59.1666 47.7429 59.6737 45.5622 59.8195 42.369C59.9655 39.1693 60 38.1476 60 30.0001C60 21.8525 59.9655 20.8309 59.8195 17.6312C59.6737 14.4379 59.1666 12.2572 58.425 10.3489C57.6583 8.37609 56.6325 6.70307 54.9647 5.03528C53.2969 3.36749 51.6239 2.34169 49.6511 1.57502C47.7428 0.833358 45.5621 0.326293 42.3688 0.180533C39.1691 0.0345347 38.1475 0 29.9999 0ZM29.9999 14.5946C21.4918 14.5946 14.5945 21.4919 14.5945 30.0001C14.5945 38.5082 21.4918 45.4055 29.9999 45.4055C38.5081 45.4055 45.4054 38.5082 45.4054 30.0001C45.4054 21.4919 38.5081 14.5946 29.9999 14.5946ZM29.9999 40.0001C24.4771 40.0001 19.9999 35.5229 19.9999 30.0001C19.9999 24.4772 24.4771 20 29.9999 20C35.5228 20 40 24.4772 40 30.0001C40 35.5229 35.5228 40.0001 29.9999 40.0001ZM49.614 13.986C49.614 15.9742 48.0023 17.586 46.014 17.586C44.0258 17.586 42.414 15.9742 42.414 13.986C42.414 11.9977 44.0258 10.386 46.014 10.386C48.0023 10.386 49.614 11.9977 49.614 13.986Z" fill="#F9F9F9"/>
</svg>
