<svg width="60" height="60" viewBox="0 0 60 60" fill="none" xmlns="http://www.w3.org/2000/svg">
<g clip-path="url(#clip0_192_9)">
<path d="M58 30C58 45.464 45.464 58 30 58C14.536 58 2 45.464 2 30C2 14.536 14.536 2 30 2C45.464 2 58 14.536 58 30Z" stroke="#F9F9F9" stroke-width="4"/>
<path d="M49.2357 18.0666C47.8207 18.6945 46.3008 19.119 44.7028 19.3098C46.3337 18.3332 47.5831 16.7856 48.1731 14.9437C46.6238 15.8639 44.9284 16.5117 43.1603 16.8589C41.7214 15.3252 39.6696 14.3677 37.3995 14.3677C33.0424 14.3677 29.5087 17.8999 29.5087 22.2597C29.5087 22.8774 29.5783 23.48 29.712 24.0586C23.1529 23.729 17.3378 20.5871 13.4454 15.813C12.7657 16.9789 12.3767 18.3346 12.3767 19.781C12.3767 22.5187 13.7701 24.9342 15.8875 26.3491C14.634 26.3103 13.4081 25.972 12.3122 25.3624V25.4622C12.3122 29.2863 15.0322 32.4749 18.6428 33.2001C17.9795 33.3818 17.2835 33.4768 16.5634 33.4768C16.0542 33.4768 15.5603 33.4286 15.0777 33.3378C16.082 36.4722 18.9967 38.7537 22.4492 38.8182C19.7481 40.9355 16.3447 42.1977 12.6483 42.1977C12.0116 42.1977 11.3824 42.1597 10.7646 42.0852C14.2578 44.3251 18.4053 45.6326 22.8623 45.6326C37.378 45.6326 45.3168 33.607 45.3168 23.1782C45.3168 22.8358 45.3092 22.496 45.2927 22.1574C46.8395 21.0386 48.1746 19.6534 49.2357 18.0666Z" fill="white"/>
</g>
<defs>
<clipPath id="clip0_192_9">
<rect width="60" height="60" fill="white"/>
</clipPath>
</defs>
</svg>
